<?xml version="1.0" encoding="UTF-8"?>
<svg id="Layer_1" data-name="Layer 1" xmlns="http://www.w3.org/2000/svg" viewBox="0 0 85.17 92.36">
  <defs>
    <style>
      .cls-1 {
        fill: #444;
      }
    </style>
  </defs>
  <path class="cls-1" d="M16.27,83.25c-4.33-3.4-7.91-7.56-10.65-12.36-2.74-4.8-4.5-10-5.24-15.45C-.38,49.78,0,44.11,1.51,38.57s4.07-10.63,7.59-15.1c3.4-4.33,7.56-7.91,12.36-10.65,4.8-2.74,10-4.5,15.46-5.24,2.19-.29,4.37-.42,6.56-.37l-1.09,3.99c-16.88,.09-32.37,11.35-37.03,28.42C-.23,60.14,11.9,81.39,32.42,86.99c20.52,5.6,41.77-6.54,47.37-27.06,4.66-17.07-2.95-34.64-17.45-43.29l1.09-3.99c1.9,1.07,3.73,2.28,5.46,3.65,4.33,3.4,7.91,7.56,10.65,12.36,2.74,4.8,4.5,10,5.24,15.45,.76,5.65,.38,11.32-1.14,16.87-1.51,5.54-4.07,10.63-7.59,15.1-3.4,4.33-7.56,7.91-12.36,10.65-4.8,2.74-10,4.5-15.46,5.24-5.65,.76-11.32,.38-16.87-1.14-5.54-1.51-10.63-4.07-15.1-7.59Z"/>
  <polygon class="cls-1" points="53.71 10.76 43.78 0 41.13 18.26 53.71 10.76"/>
</svg>